<svg width="21" height="20" viewBox="0 0 21 20" fill="none" xmlns="http://www.w3.org/2000/svg">
<path d="M19.33 6.00999L12.78 0.769988C11.5 -0.250012 9.49996 -0.260012 8.22996 0.759988L1.67996 6.00999C0.739963 6.75999 0.169963 8.25999 0.369963 9.43999L1.62996 16.98C1.91996 18.67 3.48996 20 5.19996 20H15.8C17.49 20 19.09 18.64 19.38 16.97L20.64 9.42999C20.82 8.25999 20.25 6.75999 19.33 6.00999ZM11.25 16C11.25 16.41 10.91 16.75 10.5 16.75C10.09 16.75 9.74996 16.41 9.74996 16V13C9.74996 12.59 10.09 12.25 10.5 12.25C10.91 12.25 11.25 12.59 11.25 13V16Z" fill="url(#paint0_linear_17_236)"/>
<defs>
<linearGradient id="paint0_linear_17_236" x1="20.6731" y1="-3.05176e-05" x2="0.67596" y2="20.34" gradientUnits="userSpaceOnUse">
<stop stop-color="#2D6C68"/>
<stop offset="1" stop-color="#53BCB4"/>
</linearGradient>
</defs>
</svg>